<svg xmlns="http://www.w3.org/2000/svg" width="88" height="88" viewBox="0, 0, 88, 88">
    <path class="background" d="M44,88 C68.301,88 88,68.301 88,44 C88,19.699 68.301,0 44,0 C19.699,0 0,19.699 0,44 C0,68.301 19.699,88 44,88 z" fill="#F18825"/>
    <path class="shape" d="M60.723,60.238 C62.467,60.238 63.873,58.784 63.873,57.087 L63.873,35.76 C63.873,34.015 62.419,32.609 60.723,32.609 L53.791,32.609 L51.416,29.41 C50.689,28.392 49.38,27.762 48.12,27.762 L39.88,27.762 C38.765,27.762 37.359,28.392 36.584,29.41 L34.209,32.609 L27.277,32.609 C25.581,32.609 24.127,34.015 24.127,35.76 L24.127,57.087 C24.127,58.784 25.581,60.238 27.277,60.238 L60.723,60.238 L60.723,60.238 z M35.954,36.002 L39.638,31.155 L48.362,31.155 L52.046,36.002 L60.48,36.002 L60.48,56.845 L27.52,56.845 L27.52,36.002 L35.954,36.002 L35.954,36.002 z M33.821,45.212 C33.821,50.834 38.377,55.391 44,55.391 C49.623,55.391 54.179,50.834 54.179,45.212 C54.179,39.589 49.623,35.033 44,35.033 C38.377,35.033 33.821,39.589 33.821,45.212 L33.821,45.212 L33.821,45.212 z M37.214,45.212 C37.214,41.431 40.219,38.426 44,38.426 C47.781,38.426 50.786,41.431 50.786,45.212 C50.786,48.993 47.781,51.998 44,51.998 C40.219,51.998 37.214,48.993 37.214,45.212 L37.214,45.212 L37.214,45.212 z M54.664,39.638 C54.664,40.849 55.633,41.819 56.845,41.819 C58.057,41.819 59.026,40.849 59.026,39.638 C59.026,38.426 58.057,37.456 56.845,37.456 C55.633,37.456 54.664,38.426 54.664,39.638 L54.664,39.638 z" fill="#FFFFFF"/>
</svg>
